<svg width="512" height="512" viewBox="0 0 512 512" fill="none" xmlns="http://www.w3.org/2000/svg">
<defs>
<linearGradient id="grad1" x1="0%" y1="0%" x2="100%" y2="0%">
<stop offset="0%" style="stop-color:#3b82f6;stop-opacity:1" />
<stop offset="100%" style="stop-color:#a855f7;stop-opacity:1" />
</linearGradient>
</defs>
<!-- Simpler path with much thicker stroke for icon visibility -->
<path d="M352 128C308 128 274 150 256 168C238 150 204 128 160 128C98.1 128 48 178.1 48 240C48 301.9 98.1 352 160 352C204 352 238 330 256 312C274 330 308 352 352 352C413.9 352 464 301.9 464 240C464 178.1 413.9 128 352 128ZM352 296C321.1 296 296 270.9 296 240C296 209.1 321.1 184 352 184C382.9 184 408 209.1 408 240C408 270.9 382.9 296 352 296ZM160 296C129.1 296 104 270.9 104 240C104 209.1 129.1 184 160 184C190.9 184 216 209.1 216 240C216 270.9 190.9 296 160 296Z" fill="url(#grad1)" stroke="url(#grad1)" stroke-width="40" stroke-linecap="round" stroke-linejoin="round"/>
</svg>
